<svg xmlns="http://www.w3.org/2000/svg" xmlns:xlink="http://www.w3.org/1999/xlink" width="76" height="32" viewBox="0 0 76 32">
    <defs>
        <path id="a" d="M.3.279h17.967v21.803H.3z"/>
        <path id="c" d="M.206.299h4.902v5.104H.206z"/>
    </defs>
    <g fill="none" fill-rule="evenodd">
        <path fill="#FFF" d="M6.524 25.944h-1.08V14.53h1.08c2.117 0 4.42.488 5.442 1.442 1.158 1.087 1.72 2.486 1.72 4.265 0 1.76-.567 3.139-1.732 4.22-.568.518-1.208.9-1.886 1.132-.73.235-2.393.355-3.544.355M5.485 9.691H.5v21.093h4.935c3.711 0 13.217-.38 13.217-10.547 0-3.207-1.357-10.546-13.167-10.546M50.992 14.163c4.616 0 6.52 2.922 6.52 2.922v-5.927l-.562-.312c-1.835-1.01-3.772-1.523-5.751-1.523-3.608 0-6.592 1.295-8.87 3.852-1.848 2.08-2.783 4.486-2.783 7.147 0 2.973 1.121 5.548 3.343 7.661 2.219 2.086 4.937 3.143 8.075 3.143 2.082 0 4.094-.516 5.974-1.532l.573-.311v-5.625s-2.96 2.626-6.506 2.626c-1.746 0-3.175-.561-4.376-1.724-1.205-1.165-1.79-2.568-1.79-4.275 0-1.738.587-3.163 1.803-4.36 1.188-1.187 2.61-1.762 4.35-1.762"/>
        <g transform="translate(57.064 9.044)">
            <mask id="b" fill="#fff">
                <use xlink:href="#a"/>
            </mask>
            <path fill="#FFF" d="M11.748 5.12c4.618 0 6.519 2.921 6.519 2.921V2.114l-.562-.312C15.868.792 13.933.279 11.952.279c-3.605 0-6.586 1.295-8.87 3.852C1.235 6.21.3 8.617.3 11.278c0 2.973 1.124 5.548 3.341 7.662 2.223 2.086 4.939 3.142 8.08 3.142 2.08 0 4.088-.516 5.972-1.532l.573-.311v-5.625s-2.961 2.627-6.505 2.627c-1.747 0-3.18-.562-4.376-1.725-1.205-1.165-1.79-2.567-1.79-4.275 0-1.738.588-3.163 1.8-4.36 1.187-1.186 2.61-1.762 4.352-1.762" mask="url(#b)"/>
        </g>
        <path fill="#FFF" d="M29.065 21.438L24.062 9.691h-5.15v21.093h5.15v-8.86l4.015 8.86h1.844l4.118-8.818v8.818h5.212V9.69H34.37zM3.2.451L1.913 3.307H4.48L3.2.45zM5.252 5.02l-.62-1.382H1.76L1.14 5.02H.766L3.033.05h.348l2.267 4.97h-.396zM12.596 2.552c0-1.17-.856-2.13-2.212-2.13H9.125v4.26h1.26c1.355 0 2.211-.938 2.211-2.116v-.014zM10.384 5.02h-1.62V.084h1.62c1.53 0 2.587 1.065 2.587 2.454v.014c0 1.39-1.057 2.468-2.587 2.468zM14.202 5.02V.085h3.465v.338h-3.103v1.939h2.79V2.7h-2.79v1.981h3.137v.339zM20.908 5.055h-.32L18.445.085h.404l1.906 4.54 1.912-4.54h.383zM24.079 5.02V.085h3.464v.338H24.44v1.939h2.79V2.7h-2.79v1.981h3.138v.339zM28.739 5.02V.085h.361V4.68h2.86v.339z"/>
        <g transform="translate(32.344 -.299)">
            <mask id="d" fill="#fff">
                <use xlink:href="#c"/>
            </mask>
            <path fill="#FFF" d="M4.728 2.85c0-1.219-.877-2.22-2.08-2.22C1.444.63.582 1.617.582 2.837v.014c0 1.22.876 2.22 2.08 2.22 1.203 0 2.066-.987 2.066-2.206V2.85zm-2.08 2.553C1.173 5.403.206 4.21.206 2.865V2.85c0-1.347.981-2.553 2.456-2.553 1.474 0 2.441 1.192 2.441 2.539.007.006.007.006 0 .014 0 1.346-.98 2.552-2.455 2.552z" mask="url(#d)"/>
        </g>
        <path fill="#FFF" d="M41.89 1.614c0-.782-.597-1.191-1.474-1.191h-1.377V2.84h1.336c.904 0 1.516-.48 1.516-1.213v-.014zM40.355 3.18h-1.315v1.84h-.362V.084h1.767c1.071 0 1.808.558 1.808 1.51v.013c0 1.037-.883 1.573-1.898 1.573zM47.553 5.02V.733l-1.927 2.841h-.028L43.671.734V5.02h-.348V.085h.341l1.955 2.918L47.574.085h.34V5.02zM49.36 5.02V.085h3.465v.338h-3.103v1.939h2.79V2.7h-2.79v1.981h3.137v.339zM57.798 5.02L54.368.635V5.02h-.348V.085h.341l3.36 4.293V.085h.348V5.02zM61.226.423v4.596h-.361V.423h-1.698V.085h3.757v.338zM69.6 3.659c0-.606-.521-.959-1.481-.959h-1.65v1.981h1.768c.834 0 1.363-.388 1.363-1.008v-.014zm-.27-2.327c0-.542-.44-.909-1.219-.909H66.47v1.939h1.607c.73 0 1.252-.36 1.252-1.015v-.015zM68.222 5.02h-2.115V.085h2.01c.947 0 1.58.472 1.58 1.212v.014c0 .67-.432 1.009-.828 1.17.584.156 1.099.494 1.099 1.178v.014c0 .825-.696 1.347-1.746 1.347zM72.869 3.06v1.96h-.362V3.066L70.42.085h.452l1.823 2.65 1.83-2.65h.43z"/>
    </g>
</svg>
