<svg xmlns="http://www.w3.org/2000/svg" width="157" height="85" viewBox="0 0 157 85"><g fill="#FFF"><path d="M79.12 67.55a5.655 5.655 0 0 0-2.126-1.17A9.136 9.136 0 0 0 74.28 66H71v13h3.28a9.136 9.136 0 0 0 2.714-.38 5.606 5.606 0 0 0 2.127-1.18 5.393 5.393 0 0 0 1.39-2.026 8.905 8.905 0 0 0 0-5.828 5.296 5.296 0 0 0-1.39-2.035zm.507 7.415a4.62 4.62 0 0 1-1.132 1.757 4.626 4.626 0 0 1-1.77 1.04 7.325 7.325 0 0 1-2.31.34H71.83V66.898h2.442a7.77 7.77 0 0 1 2.392.34 4.668 4.668 0 0 1 1.803 1.04 4.634 4.634 0 0 1 1.148 1.75c.29.783.43 1.62.415 2.464a7.103 7.103 0 0 1-.402 2.474zm18.555-1.81c.004.67-.05 1.34-.16 1.998a4.375 4.375 0 0 1-.577 1.58 2.932 2.932 0 0 1-1.13 1.038 4.646 4.646 0 0 1-3.63 0 2.894 2.894 0 0 1-1.13-1.037 4.375 4.375 0 0 1-.577-1.58c-.11-.66-.164-1.328-.16-1.998V66H90v7.63c-.004.708.07 1.415.22 2.104.13.618.384 1.2.74 1.703.37.5.845.892 1.388 1.144a5.733 5.733 0 0 0 4.304 0 3.624 3.624 0 0 0 1.386-1.143c.358-.504.61-1.085.74-1.703.152-.69.226-1.396.222-2.104V66h-.818v7.155zm17.734-.14a3.362 3.362 0 0 0-1.035-.573 6.49 6.49 0 0 0-1.1-.273 2.866 2.866 0 0 0 1.76-1.046c.215-.272.382-.574.497-.896.125-.33.188-.68.188-1.03a3.633 3.633 0 0 0-.206-1.22 2.63 2.63 0 0 0-.652-1.013c-.33-.31-.726-.55-1.16-.7a4.943 4.943 0 0 0-1.71-.264H108v13h3.885a11.94 11.94 0 0 0 1.966-.157 4.842 4.842 0 0 0 1.63-.556 2.998 2.998 0 0 0 1.11-1.07c.292-.53.433-1.127.407-1.727a3.316 3.316 0 0 0-.304-1.497 3.016 3.016 0 0 0-.777-.977zm-6.98-6.11h2.982c.387.003.773.028 1.156.078.37.048.728.162 1.054.336.316.172.58.42.767.72.215.386.317.82.295 1.256.013.407-.094.81-.31 1.16-.195.316-.46.587-.776.794a3.106 3.106 0 0 1-1.048.448 4.82 4.82 0 0 1-1.138.14h-2.982v-4.93zm6.52 10.038c-.25.34-.592.61-.99.775a4.463 4.463 0 0 1-1.378.327c-.505.045-1.015.067-1.526.067h-2.626v-5.378h2.95c.456.002.912.04 1.36.116.448.07.88.21 1.28.413.38.2.702.49.936.842.263.427.392.917.37 1.412.03.5-.1.998-.375 1.426zM129.057 66L124 79h1.13l1.532-4.034h5.6l1.55 4.034H135l-5.055-13h-.89zm-2.156 8.07l2.555-6.725 2.555 6.724h-5.11zM142 66h1v13h-1zm14-66h1v85h-1zM9.5 57.992a13.52 13.52 0 0 1-4.818-.716 6.305 6.305 0 0 1-2.885-2.1A8.133 8.133 0 0 1 .38 51.76 25.194 25.194 0 0 1 0 47.132V32h3.455v15.202c-.017 1.24.064 2.478.242 3.704.104.835.41 1.63.89 2.312a3.388 3.388 0 0 0 1.783 1.194c.95.25 1.932.365 2.914.34.982.025 1.963-.09 2.914-.34a3.388 3.388 0 0 0 1.784-1.194 5.176 5.176 0 0 0 .89-2.312c.177-1.226.258-2.465.24-3.704V32H19v15.13a25.194 25.194 0 0 1-.38 4.63 8.133 8.133 0 0 1-1.416 3.416 6.29 6.29 0 0 1-2.902 2.1 13.583 13.583 0 0 1-4.8.716zM27.512 47.35V57H24V32h9.3c3.075 0 5.295.585 6.66 1.754 1.362 1.17 2.043 2.885 2.04 5.145v1.552c0 2.43-.71 4.184-2.13 5.263-1.42 1.08-3.614 1.62-6.585 1.627l-5.773.01zm10.976-8.11a7.143 7.143 0 0 0-.26-2.1 2.6 2.6 0 0 0-.838-1.285 3.158 3.158 0 0 0-1.492-.623 13.293 13.293 0 0 0-2.28-.162h-5.667v8.772h5.67c.762.01 1.524-.043 2.278-.162a3.158 3.158 0 0 0 1.492-.623 2.6 2.6 0 0 0 .84-1.285c.19-.684.276-1.392.258-2.1v-.43zM66 31l-.712 3.586H55.95V57h-3.54V34.586H43L43.717 31zm9.5 26.99c-1.8.058-3.598-.198-5.318-.758a6.946 6.946 0 0 1-3.2-2.242 8.54 8.54 0 0 1-1.57-3.708 28.414 28.414 0 0 1-.41-5.135V42.86a28.42 28.42 0 0 1 .394-4.968 8.79 8.79 0 0 1 1.534-3.73 7.128 7.128 0 0 1 3.184-2.342c1.736-.6 3.56-.874 5.386-.81 1.8-.057 3.598.2 5.318.757a6.976 6.976 0 0 1 3.2 2.242 8.594 8.594 0 0 1 1.552 3.716c.298 1.693.442 3.413.43 5.134v3.287a28.47 28.47 0 0 1-.395 4.973 8.796 8.796 0 0 1-1.534 3.727 7.06 7.06 0 0 1-3.183 2.34c-1.736.598-3.56.87-5.387.803zm0-3.386a14.578 14.578 0 0 0 3.32-.304 3.572 3.572 0 0 0 2.028-1.23 5.52 5.52 0 0 0 1.02-2.618c.207-1.484.3-2.984.274-4.484v-2.96a28.698 28.698 0 0 0-.274-4.44 5.52 5.52 0 0 0-1.01-2.604 3.647 3.647 0 0 0-2.028-1.247 13.944 13.944 0 0 0-3.32-.323 14.84 14.84 0 0 0-3.322.305 3.57 3.57 0 0 0-2.044 1.228 5.493 5.493 0 0 0-1.02 2.62 28.97 28.97 0 0 0-.266 4.46v2.96a28.637 28.637 0 0 0 .275 4.435c.107.953.46 1.858 1.02 2.62a3.677 3.677 0 0 0 2.026 1.25c1.09.24 2.205.352 3.32.33zM116.217 32H120l-5.738 25h-4.135l-5.16-19.908L99.613 57h-4.136L90 32h3.853l3.973 19.873L103.25 32h3.53l5.372 19.873zm11.035 0l12.835 18.86V32H144v25h-3.322l-12.765-18.75V57H124V32zM142 4h1v13h-1zm-2 3.467h-1.333V15.7h-10.223V7.467h-.888V15.7H116.89V4H116v13h24v-.92zm-38.88 12.636h-6.213c-1.672 0-3.027-1.38-3.027-3.084v-6.78H91v6.726C91 19.194 92.773 21 94.96 21H102V8h-.88v12.103zM136 19h2v2h-2z"/><path d="M124 5h2v2h-2zM97 5h2v2h-2zm25 0h2v2h-2zm-9.97 3.435A8.2 8.2 0 0 0 109.34 8c-2.244.017-4.077 1.66-4.165 3.73H105v2.172c0 2.16 1.896 3.912 4.235 3.912h2.824a2.207 2.207 0 0 1-.716 1.62 2.537 2.537 0 0 1-1.737.675 7.19 7.19 0 0 1-2.725-.518v.973a8.17 8.17 0 0 0 2.65.435 3.61 3.61 0 0 0 2.448-.93 3.077 3.077 0 0 0 1.02-2.256V8.84a7.486 7.486 0 0 0-.97-.404zm.03 8.51h-2.79a3.533 3.533 0 0 1-2.355-.87 2.846 2.846 0 0 1-.974-2.12v-1.99c-.023-1.633 1.37-2.985 3.135-3.043a7.743 7.743 0 0 1 2.984.53v7.493zm-38.942-1.172h-10.59v-4.19C62.497 9.58 60.722 7.978 58.56 8h-.883v7.773H47.92c-1.678 0-3.037-1.26-3.037-2.815v-2.912H44v3.272C44 15.352 45.778 17 47.97 17h10.59V9.052a3.192 3.192 0 0 1 2.173.814c.58.528.908 1.247.915 2V17H74V8h-.882v7.773zM79.765 8h-2.353v.857h2.456c1.76 0 3.186 1.296 3.19 2.897v4.39H76V17h8v-5.143C84 9.727 82.104 8 79.765 8zM70 19h2v2h-2zm-15 0h2v2h-2zm-2 0h2v2h-2z"/></g></svg>